<svg aria-hidden="true" style="width:0;height:0;position:absolute;overflow:hidden" xmlns="http://www.w3.org/2000/svg"><defs><symbol id="icon-search" viewBox="0 0 32 32"><path fill="none" stroke="#fff" style="stroke:var(--color1,#fff)" stroke-linejoin="round" stroke-linecap="round" stroke-width="2.667" d="M14.667 25.333c5.891 0 10.667-4.776 10.667-10.667S20.558 3.999 14.667 3.999 4 8.775 4 14.666s4.776 10.667 10.667 10.667zM28 28.001l-5.8-5.8"/></symbol><symbol id="icon-arrow-left2" viewBox="0 0 32 32"><path d="m12.586 27.414-10-10a2 2 0 0 1 0-2.828l10-10a2 2 0 1 1 2.828 2.828L8.828 14H28a2 2 0 1 1 0 4H8.828l6.586 6.586c.39.39.586.902.586 1.414s-.195 1.024-.586 1.414a2 2 0 0 1-2.828 0z"/></symbol><symbol id="icon-arrow-right2" viewBox="0 0 32 32"><path d="m19.414 27.414 10-10a2 2 0 0 0 0-2.828l-10-10a2 2 0 1 0-2.828 2.828L23.172 14H4a2 2 0 1 0 0 4h19.172l-6.586 6.586c-.39.39-.586.902-.586 1.414s.195 1.024.586 1.414a2 2 0 0 0 2.828 0z"/></symbol><symbol id="icon-film" viewBox="0 0 32 32"><path fill="none" stroke="#fff" style="stroke:var(--color1,#fff)" stroke-linejoin="round" stroke-linecap="round" stroke-width="2.667" d="M26.427 2.667H5.574a2.907 2.907 0 0 0-2.907 2.907v20.853a2.907 2.907 0 0 0 2.907 2.907h20.853a2.907 2.907 0 0 0 2.907-2.907V5.574a2.907 2.907 0 0 0-2.907-2.907zM9.333 2.667v26.667M22.667 2.667v26.667M2.667 16h26.667M2.667 9.333h6.667M2.667 22.667h6.667M22.667 22.667h6.667M22.667 9.333h6.667"/></symbol><symbol id="icon-user" viewBox="0 0 32 32"><path d="M18 22.082v-1.649c2.203-1.241 4-4.337 4-7.432 0-4.971 0-9-6-9s-6 4.029-6 9c0 3.096 1.797 6.191 4 7.432v1.649C7.216 22.637 2 25.97 2 30h28c0-4.03-5.216-7.364-12-7.918z"/></symbol><symbol id="icon-circle-up" viewBox="0 0 32 32"><path d="M0 16c0 8.837 7.163 16 16 16s16-7.163 16-16S24.837 0 16 0 0 7.163 0 16zm29 0c0 7.18-5.82 13-13 13S3 23.18 3 16 8.82 3 16 3s13 5.82 13 13z"/><path d="m22.086 20.914 2.829-2.829-8.914-8.914-8.914 8.914 2.828 2.828 6.086-6.086z"/></symbol><symbol id="icon-rating-film" viewBox="0 0 72 32"><path fill="#ff6b01" style="fill:var(--color1,#ff6b01)" d="M10 0h52c5.523 0 10 4.477 10 10v12c0 5.523-4.477 10-10 10H10C4.477 32 0 27.523 0 22V10C0 4.477 4.477 0 10 0z"/><path fill="#fff" style="fill:var(--color2,#fff)" d="M21.176 24H18.34V10.3l-4.184 1.43v-2.4l6.656-2.452h.364V24zm17.05-7.184c0 2.454-.46 4.304-1.382 5.554-.914 1.244-2.308 1.864-4.184 1.864-1.844 0-3.234-.606-4.172-1.816-.93-1.22-1.406-3.02-1.43-5.402V14.06c0-2.452.458-4.292 1.372-5.52.92-1.226 2.324-1.84 4.206-1.84 1.868 0 3.26.6 4.172 1.794.922 1.196 1.396 2.984 1.42 5.368v2.952zm-2.846-3.188c0-1.6-.218-2.772-.656-3.514-.436-.75-1.132-1.126-2.086-1.126-.93 0-1.612.356-2.05 1.066-.438.704-.668 1.806-.692 3.306v3.866c0 1.594.224 2.78.668 3.564.446.78 1.144 1.17 2.1 1.17.912 0 1.588-.36 2.026-1.078.436-.726.668-1.86.69-3.398v-3.856zM42.706 21c.53 0 .94.152 1.23.458.269.278.435.658.435 1.076l-.001.051v-.002l.001.045c0 .416-.166.793-.435 1.069-.29.288-.7.432-1.23.432-.508 0-.912-.144-1.208-.432a1.48 1.48 0 0 1-.447-1.062l.001-.054v.003c0-.452.146-.828.434-1.126.29-.304.696-.456 1.22-.456zm15.866-4.184c0 2.454-.46 4.304-1.382 5.554-.914 1.244-2.31 1.864-4.184 1.864-1.844 0-3.234-.606-4.172-1.816-.93-1.22-1.406-3.02-1.43-5.402V14.06c0-2.452.458-4.292 1.372-5.52.92-1.226 2.324-1.84 4.206-1.84 1.868 0 3.26.6 4.172 1.794.922 1.196 1.394 2.984 1.42 5.368v2.952zm-2.848-3.188c0-1.6-.218-2.772-.656-3.514-.438-.75-1.132-1.126-2.086-1.126-.93 0-1.612.356-2.05 1.066-.438.704-.668 1.806-.692 3.306v3.866c0 1.594.222 2.78.668 3.564.446.78 1.144 1.17 2.098 1.17.914 0 1.59-.36 2.028-1.078.436-.726.668-1.86.69-3.398v-3.856z"/></symbol></defs></svg>