<svg aria-hidden="true" style="width:0;height:0;position:absolute;overflow:hidden" xmlns="http://www.w3.org/2000/svg"><defs><symbol id="icon-search" viewBox="0 0 32 32"><path fill="none" stroke="#fff" style="stroke:var(--color1,#fff)" stroke-linejoin="round" stroke-linecap="round" stroke-width="2.667" d="M14.667 25.333c5.891 0 10.667-4.776 10.667-10.667S20.558 3.999 14.667 3.999 4 8.775 4 14.666s4.776 10.667 10.667 10.667zM28 28.001l-5.8-5.8"/></symbol><symbol id="icon-arrow-left2" viewBox="0 0 32 32"><path d="m12.586 27.414-10-10a2 2 0 0 1 0-2.828l10-10a2 2 0 1 1 2.828 2.828L8.828 14H28a2 2 0 1 1 0 4H8.828l6.586 6.586c.39.39.586.902.586 1.414s-.195 1.024-.586 1.414a2 2 0 0 1-2.828 0z"/></symbol><symbol id="icon-arrow-right2" viewBox="0 0 32 32"><path d="m19.414 27.414 10-10a2 2 0 0 0 0-2.828l-10-10a2 2 0 1 0-2.828 2.828L23.172 14H4a2 2 0 1 0 0 4h19.172l-6.586 6.586c-.39.39-.586.902-.586 1.414s.195 1.024.586 1.414a2 2 0 0 0 2.828 0z"/></symbol><symbol id="icon-film" viewBox="0 0 32 32"><path fill="none" stroke="#fff" style="stroke:var(--color1,#fff)" stroke-linejoin="round" stroke-linecap="round" stroke-width="2.667" d="M26.427 2.667H5.574a2.907 2.907 0 0 0-2.907 2.907v20.853a2.907 2.907 0 0 0 2.907 2.907h20.853a2.907 2.907 0 0 0 2.907-2.907V5.574a2.907 2.907 0 0 0-2.907-2.907zM9.333 2.667v26.667M22.667 2.667v26.667M2.667 16h26.667M2.667 9.333h6.667M2.667 22.667h6.667M22.667 22.667h6.667M22.667 9.333h6.667"/></symbol><symbol id="icon-user" viewBox="0 0 32 32"><path d="M18 22.082v-1.649c2.203-1.241 4-4.337 4-7.432 0-4.971 0-9-6-9s-6 4.029-6 9c0 3.096 1.797 6.191 4 7.432v1.649C7.216 22.637 2 25.97 2 30h28c0-4.03-5.216-7.364-12-7.918z"/></symbol><symbol id="icon-circle-up" viewBox="0 0 32 32"><path d="M0 16c0 8.837 7.163 16 16 16s16-7.163 16-16S24.837 0 16 0 0 7.163 0 16zm29 0c0 7.18-5.82 13-13 13S3 23.18 3 16 8.82 3 16 3s13 5.82 13 13z"/><path d="m22.086 20.914 2.829-2.829-8.914-8.914-8.914 8.914 2.828 2.828 6.086-6.086z"/></symbol><symbol id="icon-rating-film" viewBox="0 0 72 32"><path fill="#ff6b01" style="fill:var(--color1,#ff6b01)" d="M10 0h52c5.523 0 10 4.477 10 10v12c0 5.523-4.477 10-10 10H10C4.477 32 0 27.523 0 22V10C0 4.477 4.477 0 10 0z"/><path fill="#fff" style="fill:var(--color2,#fff)" d="M21.176 24H18.34V10.3l-4.184 1.43v-2.4l6.656-2.452h.364V24zm17.05-7.184c0 2.454-.46 4.304-1.382 5.554-.914 1.244-2.308 1.864-4.184 1.864-1.844 0-3.234-.606-4.172-1.816-.93-1.22-1.406-3.02-1.43-5.402V14.06c0-2.452.458-4.292 1.372-5.52.92-1.226 2.324-1.84 4.206-1.84 1.868 0 3.26.6 4.172 1.794.922 1.196 1.396 2.984 1.42 5.368v2.952zm-2.846-3.188c0-1.6-.218-2.772-.656-3.514-.436-.75-1.132-1.126-2.086-1.126-.93 0-1.612.356-2.05 1.066-.438.704-.668 1.806-.692 3.306v3.866c0 1.594.224 2.78.668 3.564.446.78 1.144 1.17 2.1 1.17.912 0 1.588-.36 2.026-1.078.436-.726.668-1.86.69-3.398v-3.856zM42.706 21c.53 0 .94.152 1.23.458.269.278.435.658.435 1.076l-.001.051v-.002l.001.045c0 .416-.166.793-.435 1.069-.29.288-.7.432-1.23.432-.508 0-.912-.144-1.208-.432a1.48 1.48 0 0 1-.447-1.062l.001-.054v.003c0-.452.146-.828.434-1.126.29-.304.696-.456 1.22-.456zm15.866-4.184c0 2.454-.46 4.304-1.382 5.554-.914 1.244-2.31 1.864-4.184 1.864-1.844 0-3.234-.606-4.172-1.816-.93-1.22-1.406-3.02-1.43-5.402V14.06c0-2.452.458-4.292 1.372-5.52.92-1.226 2.324-1.84 4.206-1.84 1.868 0 3.26.6 4.172 1.794.922 1.196 1.394 2.984 1.42 5.368v2.952zm-2.848-3.188c0-1.6-.218-2.772-.656-3.514-.438-.75-1.132-1.126-2.086-1.126-.93 0-1.612.356-2.05 1.066-.438.704-.668 1.806-.692 3.306v3.866c0 1.594.222 2.78.668 3.564.446.78 1.144 1.17 2.098 1.17.914 0 1.59-.36 2.028-1.078.436-.726.668-1.86.69-3.398v-3.856z"/></symbol><symbol fill="#000" id="icon-close-modal-film-icon" viewBox="0 0 32 32"><path stroke-width="2.133" d="m8.533 8.533 14.933 14.933m-14.933.001L23.466 8.534"/></symbol><symbol id="icon-contrast" viewBox="0 0 32 32"><path d="M16 0C7.163 0 0 7.163 0 16s7.163 16 16 16 16-7.163 16-16S24.837 0 16 0zM4 16C4 9.373 9.373 4 16 4v24C9.373 28 4 22.627 4 16z"/></symbol><symbol id="icon-moon" viewBox="0 0 32 32"><path d="M15.5 1.663c-.088.012-.406.056-.719.094-1.869.225-4 .994-5.625 2.031-3.294 2.1-5.612 5.731-6.194 9.719-.144.95-.144 2.894-.006 3.85.356 2.406 1.238 4.569 2.656 6.456.469.625 1.669 1.85 2.325 2.369 1.325 1.056 2.925 1.931 4.425 2.419 3.7 1.212 8.119.656 11.606-1.456 1.581-.962 2.9-2.2 3.813-3.581.781-1.194.938-1.663.625-1.969-.231-.238-.5-.206-.931.1a14.268 14.268 0 0 1-3.375 1.744 9.19 9.19 0 0 1-6.044-.038c-1.344-.469-2.9-1.375-3.969-2.325-1.963-1.731-3.019-3.825-3.2-6.363-.194-2.669.575-5.475 2.044-7.431 1.438-1.912 3.837-3.306 6.744-3.906.831-.175 1.006-.294 1.012-.669 0-.362-.194-.5-1.025-.706a12.684 12.684 0 0 0-3.131-.369c-.481.006-.944.019-1.031.031z"/><path d="M24.206 3.944c-.275.081-.431.294-1.019 1.387l-.519.963-1.081.194c-.594.106-1.188.244-1.313.3-.438.206-.587.719-.331 1.15.069.119.481.556.913.975l.794.75-.175 1.044c-.2 1.206-.212 1.519-.075 1.787.144.269.55.469.856.419.131-.019.688-.231 1.238-.469l1.006-.431 1.075.463c.594.25 1.169.463 1.269.463.425 0 .844-.412.844-.838 0-.106-.106-.688-.231-1.306l-.231-1.119.531-.475c1.075-.975 1.356-1.275 1.406-1.537.056-.331-.15-.737-.45-.881-.119-.056-.706-.188-1.3-.294l-1.087-.194-.425-.787c-.681-1.256-.769-1.381-1.05-1.513s-.35-.131-.644-.05zM15.519 9.887c-.225.056-.262.1-.662.831l-.275.494-.669.137c-.7.137-.925.262-1 .556-.063.244.075.481.563.975l.469.475-.094.556c-.144.8-.131.938.081 1.156.25.25.5.238 1.2-.069l.569-.244.588.244c.631.269.881.306 1.119.15.262-.169.288-.387.144-1.131l-.131-.675.538-.531c.494-.481.544-.556.544-.769 0-.425-.25-.575-1.219-.738l-.444-.069-.288-.544c-.413-.762-.613-.919-1.031-.806zM21.85 15.319c-.281.081-.456.281-.831.994-.194.363-.356.669-.369.681s-.375.087-.819.169c-.869.163-1.05.25-1.225.606-.181.363-.075.594.625 1.3l.594.606-.131.844c-.156.956-.125 1.144.219 1.413.262.206.656.156 1.475-.2l.669-.288.719.313c.988.425 1.381.413 1.631-.069.125-.25.119-.444-.063-1.294l-.15-.725.681-.663c.681-.656.688-.663.688-.95 0-.306-.144-.556-.387-.688-.069-.038-.481-.131-.913-.212-.438-.081-.8-.169-.813-.2a41.321 41.321 0 0 0-.406-.731c-.481-.85-.731-1.044-1.194-.906z"/></symbol><symbol id="icon-sun" viewBox="0 0 32 32"><path d="M16 26a2 2 0 0 1 2 2v2a2 2 0 1 1-4 0v-2a2 2 0 0 1 2-2zm0-20a2 2 0 0 1-2-2V2a2 2 0 1 1 4 0v2a2 2 0 0 1-2 2zm14 8a2 2 0 1 1 0 4h-2a2 2 0 1 1 0-4h2zM6 16a2 2 0 0 1-2 2H2a2 2 0 1 1 0-4h2a2 2 0 0 1 2 2zm19.899 7.071 1.414 1.414a2 2 0 1 1-2.828 2.828l-1.414-1.414a2 2 0 1 1 2.828-2.828zM6.101 8.929 4.687 7.515a2 2 0 1 1 2.828-2.828l1.414 1.414a2 2 0 1 1-2.828 2.828zm19.798 0a2 2 0 1 1-2.828-2.828l1.414-1.414a2 2 0 1 1 2.828 2.828l-1.414 1.414zM6.101 23.071a2 2 0 1 1 2.828 2.828l-1.414 1.414a2 2 0 1 1-2.828-2.828l1.414-1.414zM16 8a8 8 0 1 0 0 16 8 8 0 0 0 0-16zm0 13a5 5 0 1 1 .001-10.001A5 5 0 0 1 16 21z"/><symbol id="icon-heart" viewBox="0 0 32 32"><path d="M23.6 2c-3.363 0-6.258 2.736-7.599 5.594C14.659 4.736 11.764 2 8.4 2 3.763 2 0 5.764 0 10.401c0 9.433 9.516 11.906 16.001 21.232C22.131 22.365 32 19.533 32 10.401 32 5.764 28.237 2 23.6 2z"/></symbol><symbol id="icon-cross" viewBox="0 0 32 32"><path d="M31.708 25.708 22 16l9.708-9.708a1 1 0 0 0 0-1.414L27.122.292a1 1 0 0 0-1.414-.001L16 9.999 6.292.291a.998.998 0 0 0-1.414.001L.292 4.878a1 1 0 0 0 0 1.414L10 16 .292 25.708a.999.999 0 0 0 0 1.414l4.586 4.586a1 1 0 0 0 1.414 0L16 22l9.708 9.708a1 1 0 0 0 1.414 0l4.586-4.586a.999.999 0 0 0 0-1.414z"/></symbol><symbol id="icon-modal-close" viewBox="0 0 30 32"><path d="m16.239 15.371 6.935-7.008a.852.852 0 0 0-.043-1.148.83.83 0 0 0-1.136-.042l.001-.001-6.936 7.006-6.935-7.016a.836.836 0 0 0-1.435.583v.02-.001c0 .224.088.439.245.599l6.946 7.008-6.946 7.006a.843.843 0 0 0-.231.956l-.002-.006a.85.85 0 0 0 .469.476l.006.002a.826.826 0 0 0 .941-.236l.001-.001 6.942-7.004 6.936 7.006a.832.832 0 0 0 1.38-.607v-.001l.001-.033a.848.848 0 0 0-.203-.552l.001.001-6.935-7.008z"/></symbol></symbol></defs></svg>