<svg aria-hidden="true" style="position: absolute; width: 0; height: 0; overflow: hidden;" version="1.1" xmlns="http://www.w3.org/2000/svg" xmlns:xlink="http://www.w3.org/1999/xlink">
<defs>
<symbol id="icon-search" viewBox="0 0 32 32">
<path fill="none" stroke="#fff" style="stroke: var(--color1, #fff)" stroke-linejoin="round" stroke-linecap="round" stroke-miterlimit="4" stroke-width="2.6667" d="M14.667 25.333c5.891 0 10.667-4.776 10.667-10.667s-4.776-10.667-10.667-10.667c-5.891 0-10.667 4.776-10.667 10.667s4.776 10.667 10.667 10.667z"></path>
<path fill="none" stroke="#fff" style="stroke: var(--color1, #fff)" stroke-linejoin="round" stroke-linecap="round" stroke-miterlimit="4" stroke-width="2.6667" d="M28 28.001l-5.8-5.8"></path>
</symbol>
<symbol id="icon-arrow-left2" viewBox="0 0 32 32">
<path d="M12.586 27.414l-10-10c-0.781-0.781-0.781-2.047 0-2.828l10-10c0.781-0.781 2.047-0.781 2.828 0s0.781 2.047 0 2.828l-6.586 6.586h19.172c1.105 0 2 0.895 2 2s-0.895 2-2 2h-19.172l6.586 6.586c0.39 0.39 0.586 0.902 0.586 1.414s-0.195 1.024-0.586 1.414c-0.781 0.781-2.047 0.781-2.828 0z"></path>
</symbol>
<symbol id="icon-arrow-right2" viewBox="0 0 32 32">
<path d="M19.414 27.414l10-10c0.781-0.781 0.781-2.047 0-2.828l-10-10c-0.781-0.781-2.047-0.781-2.828 0s-0.781 2.047 0 2.828l6.586 6.586h-19.172c-1.105 0-2 0.895-2 2s0.895 2 2 2h19.172l-6.586 6.586c-0.39 0.39-0.586 0.902-0.586 1.414s0.195 1.024 0.586 1.414c0.781 0.781 2.047 0.781 2.828 0z"></path>
</symbol>
<symbol id="icon-film" viewBox="0 0 32 32">
<path fill="none" stroke="#fff" style="stroke: var(--color1, #fff)" stroke-linejoin="round" stroke-linecap="round" stroke-miterlimit="4" stroke-width="2.6667" d="M26.427 2.667h-20.853c-1.605 0-2.907 1.301-2.907 2.907v20.853c0 1.605 1.301 2.907 2.907 2.907h20.853c1.605 0 2.907-1.301 2.907-2.907v-20.853c0-1.605-1.301-2.907-2.907-2.907z"></path>
<path fill="none" stroke="#fff" style="stroke: var(--color1, #fff)" stroke-linejoin="round" stroke-linecap="round" stroke-miterlimit="4" stroke-width="2.6667" d="M9.333 2.667v26.667"></path>
<path fill="none" stroke="#fff" style="stroke: var(--color1, #fff)" stroke-linejoin="round" stroke-linecap="round" stroke-miterlimit="4" stroke-width="2.6667" d="M22.667 2.667v26.667"></path>
<path fill="none" stroke="#fff" style="stroke: var(--color1, #fff)" stroke-linejoin="round" stroke-linecap="round" stroke-miterlimit="4" stroke-width="2.6667" d="M2.667 16h26.667"></path>
<path fill="none" stroke="#fff" style="stroke: var(--color1, #fff)" stroke-linejoin="round" stroke-linecap="round" stroke-miterlimit="4" stroke-width="2.6667" d="M2.667 9.333h6.667"></path>
<path fill="none" stroke="#fff" style="stroke: var(--color1, #fff)" stroke-linejoin="round" stroke-linecap="round" stroke-miterlimit="4" stroke-width="2.6667" d="M2.667 22.667h6.667"></path>
<path fill="none" stroke="#fff" style="stroke: var(--color1, #fff)" stroke-linejoin="round" stroke-linecap="round" stroke-miterlimit="4" stroke-width="2.6667" d="M22.667 22.667h6.667"></path>
<path fill="none" stroke="#fff" style="stroke: var(--color1, #fff)" stroke-linejoin="round" stroke-linecap="round" stroke-miterlimit="4" stroke-width="2.6667" d="M22.667 9.333h6.667"></path>
</symbol>
<symbol id="icon-user" viewBox="0 0 32 32">
<path d="M18 22.082v-1.649c2.203-1.241 4-4.337 4-7.432 0-4.971 0-9-6-9s-6 4.029-6 9c0 3.096 1.797 6.191 4 7.432v1.649c-6.784 0.555-12 3.888-12 7.918h28c0-4.030-5.216-7.364-12-7.918z"></path>
</symbol>
<symbol id="icon-circle-up" viewBox="0 0 32 32">
<path d="M0 16c0 8.837 7.163 16 16 16s16-7.163 16-16-7.163-16-16-16-16 7.163-16 16zM29 16c0 7.18-5.82 13-13 13s-13-5.82-13-13 5.82-13 13-13 13 5.82 13 13z"></path>
<path d="M22.086 20.914l2.829-2.829-8.914-8.914-8.914 8.914 2.828 2.828 6.086-6.086z"></path>
</symbol>
<symbol id="icon-rating-film" viewBox="0 0 72 32">
<path fill="#ff6b01" style="fill: var(--color1, #ff6b01)" d="M10 0h52c5.523 0 10 4.477 10 10v12c0 5.523-4.477 10-10 10h-52c-5.523 0-10-4.477-10-10v-12c0-5.523 4.477-10 10-10z"></path>
<path fill="#fff" style="fill: var(--color2, #fff)" d="M21.176 24h-2.836v-13.7l-4.184 1.43v-2.4l6.656-2.452h0.364v17.122zM38.226 16.816c0 2.454-0.46 4.304-1.382 5.554-0.914 1.244-2.308 1.864-4.184 1.864-1.844 0-3.234-0.606-4.172-1.816-0.93-1.22-1.406-3.020-1.43-5.402v-2.956c0-2.452 0.458-4.292 1.372-5.52 0.92-1.226 2.324-1.84 4.206-1.84 1.868 0 3.26 0.6 4.172 1.794 0.922 1.196 1.396 2.984 1.42 5.368v2.952zM35.38 13.628c0-1.6-0.218-2.772-0.656-3.514-0.436-0.75-1.132-1.126-2.086-1.126-0.93 0-1.612 0.356-2.050 1.066-0.438 0.704-0.668 1.806-0.692 3.306v3.866c0 1.594 0.224 2.78 0.668 3.564 0.446 0.78 1.144 1.17 2.1 1.17 0.912 0 1.588-0.36 2.026-1.078 0.436-0.726 0.668-1.86 0.69-3.398v-3.856zM42.706 21c0.53 0 0.94 0.152 1.23 0.458 0.269 0.278 0.435 0.658 0.435 1.076 0 0.017-0 0.034-0.001 0.051l0-0.002c0 0.013 0.001 0.029 0.001 0.045 0 0.416-0.166 0.793-0.435 1.069l0-0c-0.29 0.288-0.7 0.432-1.23 0.432-0.508 0-0.912-0.144-1.208-0.432-0.276-0.27-0.447-0.646-0.447-1.062 0-0.018 0-0.036 0.001-0.054l-0 0.003c0-0.452 0.146-0.828 0.434-1.126 0.29-0.304 0.696-0.456 1.22-0.456zM58.572 16.816c0 2.454-0.46 4.304-1.382 5.554-0.914 1.244-2.31 1.864-4.184 1.864-1.844 0-3.234-0.606-4.172-1.816-0.93-1.22-1.406-3.020-1.43-5.402v-2.956c0-2.452 0.458-4.292 1.372-5.52 0.92-1.226 2.324-1.84 4.206-1.84 1.868 0 3.26 0.6 4.172 1.794 0.922 1.196 1.394 2.984 1.42 5.368v2.952zM55.724 13.628c0-1.6-0.218-2.772-0.656-3.514-0.438-0.75-1.132-1.126-2.086-1.126-0.93 0-1.612 0.356-2.050 1.066-0.438 0.704-0.668 1.806-0.692 3.306v3.866c0 1.594 0.222 2.78 0.668 3.564 0.446 0.78 1.144 1.17 2.098 1.17 0.914 0 1.59-0.36 2.028-1.078 0.436-0.726 0.668-1.86 0.69-3.398v-3.856z"></path>
</symbol>
<symbol fill="#000" id="icon-close-modal-film-icon" viewBox="0 0 32 32">
<path stroke-linejoin="miter" stroke-linecap="butt" stroke-miterlimit="4" stroke-width="2.1333" d="M8.533 8.533l14.933 14.933M8.533 23.467l14.933-14.933"></path>
</symbol>
<symbol id="icon-contrast" viewBox="0 0 32 32">
<path d="M16 0c-8.837 0-16 7.163-16 16s7.163 16 16 16 16-7.163 16-16-7.163-16-16-16zM4 16c0-6.627 5.373-12 12-12v24c-6.627 0-12-5.373-12-12z"></path>
</symbol>
<symbol id="icon-heart" viewBox="0 0 32 32">
<path d="M23.6 2c-3.363 0-6.258 2.736-7.599 5.594-1.342-2.858-4.237-5.594-7.601-5.594-4.637 0-8.4 3.764-8.4 8.401 0 9.433 9.516 11.906 16.001 21.232 6.13-9.268 15.999-12.1 15.999-21.232 0-4.637-3.763-8.401-8.4-8.401z"></path>
</symbol>
</defs>
</svg>
