<svg aria-hidden="true" style="position: absolute; width: 0; height: 0; overflow: hidden;" version="1.1" xmlns="http://www.w3.org/2000/svg" xmlns:xlink="http://www.w3.org/1999/xlink">
<defs>
<symbol id="icon-search" viewBox="0 0 32 32">
<path fill="none" stroke="#fff" style="stroke: var(--color1, #fff)" stroke-linejoin="round" stroke-linecap="round" stroke-miterlimit="4" stroke-width="2.6667" d="M14.667 25.333c5.891 0 10.667-4.776 10.667-10.667s-4.776-10.667-10.667-10.667c-5.891 0-10.667 4.776-10.667 10.667s4.776 10.667 10.667 10.667z"></path>
<path fill="none" stroke="#fff" style="stroke: var(--color1, #fff)" stroke-linejoin="round" stroke-linecap="round" stroke-miterlimit="4" stroke-width="2.6667" d="M28 28.001l-5.8-5.8"></path>
</symbol>
<symbol id="icon-arrow-left2" viewBox="0 0 32 32">
<path d="M12.586 27.414l-10-10c-0.781-0.781-0.781-2.047 0-2.828l10-10c0.781-0.781 2.047-0.781 2.828 0s0.781 2.047 0 2.828l-6.586 6.586h19.172c1.105 0 2 0.895 2 2s-0.895 2-2 2h-19.172l6.586 6.586c0.39 0.39 0.586 0.902 0.586 1.414s-0.195 1.024-0.586 1.414c-0.781 0.781-2.047 0.781-2.828 0z"></path>
</symbol>
<symbol id="icon-arrow-right2" viewBox="0 0 32 32">
<path d="M19.414 27.414l10-10c0.781-0.781 0.781-2.047 0-2.828l-10-10c-0.781-0.781-2.047-0.781-2.828 0s-0.781 2.047 0 2.828l6.586 6.586h-19.172c-1.105 0-2 0.895-2 2s0.895 2 2 2h19.172l-6.586 6.586c-0.39 0.39-0.586 0.902-0.586 1.414s0.195 1.024 0.586 1.414c0.781 0.781 2.047 0.781 2.828 0z"></path>
</symbol>
<symbol id="icon-film" viewBox="0 0 32 32">
<path fill="none" stroke="#fff" style="stroke: var(--color1, #fff)" stroke-linejoin="round" stroke-linecap="round" stroke-miterlimit="4" stroke-width="2.6667" d="M26.427 2.667h-20.853c-1.605 0-2.907 1.301-2.907 2.907v20.853c0 1.605 1.301 2.907 2.907 2.907h20.853c1.605 0 2.907-1.301 2.907-2.907v-20.853c0-1.605-1.301-2.907-2.907-2.907z"></path>
<path fill="none" stroke="#fff" style="stroke: var(--color1, #fff)" stroke-linejoin="round" stroke-linecap="round" stroke-miterlimit="4" stroke-width="2.6667" d="M9.333 2.667v26.667"></path>
<path fill="none" stroke="#fff" style="stroke: var(--color1, #fff)" stroke-linejoin="round" stroke-linecap="round" stroke-miterlimit="4" stroke-width="2.6667" d="M22.667 2.667v26.667"></path>
<path fill="none" stroke="#fff" style="stroke: var(--color1, #fff)" stroke-linejoin="round" stroke-linecap="round" stroke-miterlimit="4" stroke-width="2.6667" d="M2.667 16h26.667"></path>
<path fill="none" stroke="#fff" style="stroke: var(--color1, #fff)" stroke-linejoin="round" stroke-linecap="round" stroke-miterlimit="4" stroke-width="2.6667" d="M2.667 9.333h6.667"></path>
<path fill="none" stroke="#fff" style="stroke: var(--color1, #fff)" stroke-linejoin="round" stroke-linecap="round" stroke-miterlimit="4" stroke-width="2.6667" d="M2.667 22.667h6.667"></path>
<path fill="none" stroke="#fff" style="stroke: var(--color1, #fff)" stroke-linejoin="round" stroke-linecap="round" stroke-miterlimit="4" stroke-width="2.6667" d="M22.667 22.667h6.667"></path>
<path fill="none" stroke="#fff" style="stroke: var(--color1, #fff)" stroke-linejoin="round" stroke-linecap="round" stroke-miterlimit="4" stroke-width="2.6667" d="M22.667 9.333h6.667"></path>
</symbol>
<symbol id="icon-user" viewBox="0 0 32 32">
<path d="M18 22.082v-1.649c2.203-1.241 4-4.337 4-7.432 0-4.971 0-9-6-9s-6 4.029-6 9c0 3.096 1.797 6.191 4 7.432v1.649c-6.784 0.555-12 3.888-12 7.918h28c0-4.030-5.216-7.364-12-7.918z"></path>
</symbol>
<symbol id="icon-circle-up" viewBox="0 0 32 32">
<path d="M0 16c0 8.837 7.163 16 16 16s16-7.163 16-16-7.163-16-16-16-16 7.163-16 16zM29 16c0 7.18-5.82 13-13 13s-13-5.82-13-13 5.82-13 13-13 13 5.82 13 13z"></path>
<path d="M22.086 20.914l2.829-2.829-8.914-8.914-8.914 8.914 2.828 2.828 6.086-6.086z"></path>
</symbol>
<symbol id="icon-rating-film" viewBox="0 0 72 32">
<path fill="#ff6b01" style="fill: var(--color1, #ff6b01)" d="M10 0h52c5.523 0 10 4.477 10 10v12c0 5.523-4.477 10-10 10h-52c-5.523 0-10-4.477-10-10v-12c0-5.523 4.477-10 10-10z"></path>
<path fill="#fff" style="fill: var(--color2, #fff)" d="M21.176 24h-2.836v-13.7l-4.184 1.43v-2.4l6.656-2.452h0.364v17.122zM38.226 16.816c0 2.454-0.46 4.304-1.382 5.554-0.914 1.244-2.308 1.864-4.184 1.864-1.844 0-3.234-0.606-4.172-1.816-0.93-1.22-1.406-3.020-1.43-5.402v-2.956c0-2.452 0.458-4.292 1.372-5.52 0.92-1.226 2.324-1.84 4.206-1.84 1.868 0 3.26 0.6 4.172 1.794 0.922 1.196 1.396 2.984 1.42 5.368v2.952zM35.38 13.628c0-1.6-0.218-2.772-0.656-3.514-0.436-0.75-1.132-1.126-2.086-1.126-0.93 0-1.612 0.356-2.050 1.066-0.438 0.704-0.668 1.806-0.692 3.306v3.866c0 1.594 0.224 2.78 0.668 3.564 0.446 0.78 1.144 1.17 2.1 1.17 0.912 0 1.588-0.36 2.026-1.078 0.436-0.726 0.668-1.86 0.69-3.398v-3.856zM42.706 21c0.53 0 0.94 0.152 1.23 0.458 0.269 0.278 0.435 0.658 0.435 1.076 0 0.017-0 0.034-0.001 0.051l0-0.002c0 0.013 0.001 0.029 0.001 0.045 0 0.416-0.166 0.793-0.435 1.069l0-0c-0.29 0.288-0.7 0.432-1.23 0.432-0.508 0-0.912-0.144-1.208-0.432-0.276-0.27-0.447-0.646-0.447-1.062 0-0.018 0-0.036 0.001-0.054l-0 0.003c0-0.452 0.146-0.828 0.434-1.126 0.29-0.304 0.696-0.456 1.22-0.456zM58.572 16.816c0 2.454-0.46 4.304-1.382 5.554-0.914 1.244-2.31 1.864-4.184 1.864-1.844 0-3.234-0.606-4.172-1.816-0.93-1.22-1.406-3.020-1.43-5.402v-2.956c0-2.452 0.458-4.292 1.372-5.52 0.92-1.226 2.324-1.84 4.206-1.84 1.868 0 3.26 0.6 4.172 1.794 0.922 1.196 1.394 2.984 1.42 5.368v2.952zM55.724 13.628c0-1.6-0.218-2.772-0.656-3.514-0.438-0.75-1.132-1.126-2.086-1.126-0.93 0-1.612 0.356-2.050 1.066-0.438 0.704-0.668 1.806-0.692 3.306v3.866c0 1.594 0.222 2.78 0.668 3.564 0.446 0.78 1.144 1.17 2.098 1.17 0.914 0 1.59-0.36 2.028-1.078 0.436-0.726 0.668-1.86 0.69-3.398v-3.856z"></path>
</symbol>
<symbol fill="#000" id="icon-close-modal-film-icon" viewBox="0 0 32 32">
<path stroke-linejoin="miter" stroke-linecap="butt" stroke-miterlimit="4" stroke-width="2.1333" d="M8.533 8.533l14.933 14.933M8.533 23.467l14.933-14.933"></path>
</symbol>
<symbol id="icon-contrast" viewBox="0 0 32 32">
<path d="M16 0c-8.837 0-16 7.163-16 16s7.163 16 16 16 16-7.163 16-16-7.163-16-16-16zM4 16c0-6.627 5.373-12 12-12v24c-6.627 0-12-5.373-12-12z"></path>
</symbol>

<symbol id="icon-moon" viewBox="0 0 32 32">
<path d="M15.5 1.663c-0.088 0.012-0.406 0.056-0.719 0.094-1.869 0.225-4 0.994-5.625 2.031-3.294 2.1-5.612 5.731-6.194 9.719-0.144 0.95-0.144 2.894-0.006 3.85 0.356 2.406 1.238 4.569 2.656 6.456 0.469 0.625 1.669 1.85 2.325 2.369 1.325 1.056 2.925 1.931 4.425 2.419 3.7 1.212 8.119 0.656 11.606-1.456 1.581-0.962 2.9-2.2 3.813-3.581 0.781-1.194 0.938-1.663 0.625-1.969-0.231-0.238-0.5-0.206-0.931 0.1-0.962 0.688-2.281 1.369-3.375 1.744-1.956 0.669-4.063 0.656-6.044-0.038-1.344-0.469-2.9-1.375-3.969-2.325-1.963-1.731-3.019-3.825-3.2-6.363-0.194-2.669 0.575-5.475 2.044-7.431 1.438-1.912 3.837-3.306 6.744-3.906 0.831-0.175 1.006-0.294 1.012-0.669 0-0.362-0.194-0.5-1.025-0.706-0.994-0.25-2.069-0.375-3.131-0.369-0.481 0.006-0.944 0.019-1.031 0.031z"></path>
<path d="M24.206 3.944c-0.275 0.081-0.431 0.294-1.019 1.387l-0.519 0.963-1.081 0.194c-0.594 0.106-1.188 0.244-1.313 0.3-0.438 0.206-0.587 0.719-0.331 1.15 0.069 0.119 0.481 0.556 0.913 0.975l0.794 0.75-0.175 1.044c-0.2 1.206-0.212 1.519-0.075 1.787 0.144 0.269 0.55 0.469 0.856 0.419 0.131-0.019 0.688-0.231 1.238-0.469l1.006-0.431 1.075 0.463c0.594 0.25 1.169 0.463 1.269 0.463 0.425 0 0.844-0.412 0.844-0.838 0-0.106-0.106-0.688-0.231-1.306l-0.231-1.119 0.531-0.475c1.075-0.975 1.356-1.275 1.406-1.537 0.056-0.331-0.15-0.737-0.45-0.881-0.119-0.056-0.706-0.188-1.3-0.294l-1.087-0.194-0.425-0.787c-0.681-1.256-0.769-1.381-1.050-1.513s-0.35-0.131-0.644-0.050z"></path>
<path d="M15.519 9.887c-0.225 0.056-0.262 0.1-0.662 0.831l-0.275 0.494-0.669 0.137c-0.7 0.137-0.925 0.262-1 0.556-0.063 0.244 0.075 0.481 0.563 0.975l0.469 0.475-0.094 0.556c-0.144 0.8-0.131 0.938 0.081 1.156 0.25 0.25 0.5 0.238 1.2-0.069l0.569-0.244 0.588 0.244c0.631 0.269 0.881 0.306 1.119 0.15 0.262-0.169 0.288-0.387 0.144-1.131l-0.131-0.675 0.538-0.531c0.494-0.481 0.544-0.556 0.544-0.769 0-0.425-0.25-0.575-1.219-0.738l-0.444-0.069-0.288-0.544c-0.413-0.762-0.613-0.919-1.031-0.806z"></path>
<path d="M21.85 15.319c-0.281 0.081-0.456 0.281-0.831 0.994-0.194 0.363-0.356 0.669-0.369 0.681s-0.375 0.087-0.819 0.169c-0.869 0.163-1.050 0.25-1.225 0.606-0.181 0.363-0.075 0.594 0.625 1.3l0.594 0.606-0.131 0.844c-0.156 0.956-0.125 1.144 0.219 1.413 0.262 0.206 0.656 0.156 1.475-0.2l0.669-0.288 0.719 0.313c0.988 0.425 1.381 0.413 1.631-0.069 0.125-0.25 0.119-0.444-0.063-1.294l-0.15-0.725 0.681-0.663c0.681-0.656 0.688-0.663 0.688-0.95 0-0.306-0.144-0.556-0.387-0.688-0.069-0.038-0.481-0.131-0.913-0.212-0.438-0.081-0.8-0.169-0.813-0.2-0.012-0.025-0.194-0.356-0.406-0.731-0.481-0.85-0.731-1.044-1.194-0.906z"></path>
</symbol>

<symbol id="icon-sun" viewBox="0 0 32 32">
<path d="M16 26c1.105 0 2 0.895 2 2v2c0 1.105-0.895 2-2 2s-2-0.895-2-2v-2c0-1.105 0.895-2 2-2zM16 6c-1.105 0-2-0.895-2-2v-2c0-1.105 0.895-2 2-2s2 0.895 2 2v2c0 1.105-0.895 2-2 2zM30 14c1.105 0 2 0.895 2 2s-0.895 2-2 2h-2c-1.105 0-2-0.895-2-2s0.895-2 2-2h2zM6 16c0 1.105-0.895 2-2 2h-2c-1.105 0-2-0.895-2-2s0.895-2 2-2h2c1.105 0 2 0.895 2 2zM25.899 23.071l1.414 1.414c0.781 0.781 0.781 2.047 0 2.828s-2.047 0.781-2.828 0l-1.414-1.414c-0.781-0.781-0.781-2.047 0-2.828s2.047-0.781 2.828 0zM6.101 8.929l-1.414-1.414c-0.781-0.781-0.781-2.047 0-2.828s2.047-0.781 2.828 0l1.414 1.414c0.781 0.781 0.781 2.047 0 2.828s-2.047 0.781-2.828 0zM25.899 8.929c-0.781 0.781-2.047 0.781-2.828 0s-0.781-2.047 0-2.828l1.414-1.414c0.781-0.781 2.047-0.781 2.828 0s0.781 2.047 0 2.828l-1.414 1.414zM6.101 23.071c0.781-0.781 2.047-0.781 2.828 0s0.781 2.047 0 2.828l-1.414 1.414c-0.781 0.781-2.047 0.781-2.828 0s-0.781-2.047 0-2.828l1.414-1.414z"></path>
<path d="M16 8c-4.418 0-8 3.582-8 8s3.582 8 8 8c4.418 0 8-3.582 8-8s-3.582-8-8-8zM16 21c-2.761 0-5-2.239-5-5s2.239-5 5-5 5 2.239 5 5-2.239 5-5 5z"></path>
<symbol id="icon-heart" viewBox="0 0 32 32">
<path d="M23.6 2c-3.363 0-6.258 2.736-7.599 5.594-1.342-2.858-4.237-5.594-7.601-5.594-4.637 0-8.4 3.764-8.4 8.401 0 9.433 9.516 11.906 16.001 21.232 6.13-9.268 15.999-12.1 15.999-21.232 0-4.637-3.763-8.401-8.4-8.401z"></path>
</symbol>
</defs>
</svg>
